<svg width="68" height="26" viewBox="0 0 68 26" fill="none" xmlns="http://www.w3.org/2000/svg">
<g filter="url(#filter0_d_10_7)">
<mask id="path-1-inside-1_10_7" fill="white">
<path d="M4.93367 4H7.69367L9.83367 12.38H9.87367V4H11.8337V18H9.57367L6.93367 7.78H6.89367V18H4.93367V4ZM13.8688 4H19.8688V6H16.0688V9.7H19.0888V11.7H16.0688V16H19.8688V18H13.8688V4ZM23.5135 10.84L21.0935 4H23.4135L24.8935 8.52H24.9335L26.4535 4H28.5335L26.1135 10.84L28.6535 18H26.3335L24.7335 13.12H24.6935L23.0535 18H20.9735L23.5135 10.84ZM31.8185 6H29.5185V4H36.3185V6H34.0185V18H31.8185V6ZM37.7837 4H43.6037V6H39.9837V9.9H42.8237V11.9H39.9837V18H37.7837V4ZM45.0587 4H47.2587V16H50.8787V18H45.0587V4ZM52.3337 4H54.5337V18H52.3337V4ZM58.5213 10.84L56.1013 4H58.4213L59.9013 8.52H59.9413L61.4613 4H63.5413L61.1213 10.84L63.6613 18H61.3413L59.7413 13.12H59.7013L58.0613 18H55.9813L58.5213 10.84Z"/>
</mask>
<path d="M4.93367 4H7.69367L9.83367 12.38H9.87367V4H11.8337V18H9.57367L6.93367 7.78H6.89367V18H4.93367V4ZM13.8688 4H19.8688V6H16.0688V9.7H19.0888V11.7H16.0688V16H19.8688V18H13.8688V4ZM23.5135 10.84L21.0935 4H23.4135L24.8935 8.52H24.9335L26.4535 4H28.5335L26.1135 10.84L28.6535 18H26.3335L24.7335 13.12H24.6935L23.0535 18H20.9735L23.5135 10.84ZM31.8185 6H29.5185V4H36.3185V6H34.0185V18H31.8185V6ZM37.7837 4H43.6037V6H39.9837V9.9H42.8237V11.9H39.9837V18H37.7837V4ZM45.0587 4H47.2587V16H50.8787V18H45.0587V4ZM52.3337 4H54.5337V18H52.3337V4ZM58.5213 10.84L56.1013 4H58.4213L59.9013 8.52H59.9413L61.4613 4H63.5413L61.1213 10.84L63.6613 18H61.3413L59.7413 13.12H59.7013L58.0613 18H55.9813L58.5213 10.84Z" fill="#FFFBFB"/>
<path d="M4.93367 4V-15H-14.0663V4H4.93367ZM7.69367 4L26.1029 -0.70116L22.4514 -15H7.69367V4ZM9.83367 12.38L-8.57554 17.0812L-4.92405 31.38H9.83367V12.38ZM9.87367 12.38V31.38H28.8737V12.38H9.87367ZM9.87367 4V-15H-9.12633V4H9.87367ZM11.8337 4H30.8337V-15H11.8337V4ZM11.8337 18V37H30.8337V18H11.8337ZM9.57367 18L-8.82247 22.752L-5.14198 37H9.57367V18ZM6.93367 7.78L25.3298 3.02796L21.6493 -11.22H6.93367V7.78ZM6.89367 7.78V-11.22H-12.1063V7.78H6.89367ZM6.89367 18V37H25.8937V18H6.89367ZM4.93367 18H-14.0663V37H4.93367V18ZM4.93367 23H7.69367V-15H4.93367V23ZM-10.7155 8.70116L-8.57554 17.0812L28.2429 7.67884L26.1029 -0.70116L-10.7155 8.70116ZM9.83367 31.38H9.87367V-6.62H9.83367V31.38ZM28.8737 12.38V4H-9.12633V12.38H28.8737ZM9.87367 23H11.8337V-15H9.87367V23ZM-7.16633 4V18H30.8337V4H-7.16633ZM11.8337 -1H9.57367V37H11.8337V-1ZM27.9698 13.248L25.3298 3.02796L-11.4625 12.532L-8.82247 22.752L27.9698 13.248ZM6.93367 -11.22H6.89367V26.78H6.93367V-11.22ZM-12.1063 7.78V18H25.8937V7.78H-12.1063ZM6.89367 -1H4.93367V37H6.89367V-1ZM23.9337 18V4H-14.0663V18H23.9337ZM13.8688 4V-15H-5.13117V4H13.8688ZM19.8688 4H38.8688V-15H19.8688V4ZM19.8688 6V25H38.8688V6H19.8688ZM16.0688 6V-13H-2.93117V6H16.0688ZM16.0688 9.7H-2.93117V28.7H16.0688V9.7ZM19.0888 9.7H38.0888V-9.3H19.0888V9.7ZM19.0888 11.7V30.7H38.0888V11.7H19.0888ZM16.0688 11.7V-7.3H-2.93117V11.7H16.0688ZM16.0688 16H-2.93117V35H16.0688V16ZM19.8688 16H38.8688V-3H19.8688V16ZM19.8688 18V37H38.8688V18H19.8688ZM13.8688 18H-5.13117V37H13.8688V18ZM13.8688 23H19.8688V-15H13.8688V23ZM0.868829 4V6H38.8688V4H0.868829ZM19.8688 -13H16.0688V25H19.8688V-13ZM-2.93117 6V9.7H35.0688V6H-2.93117ZM16.0688 28.7H19.0888V-9.3H16.0688V28.7ZM0.0888284 9.7V11.7H38.0888V9.7H0.0888284ZM19.0888 -7.3H16.0688V30.7H19.0888V-7.3ZM-2.93117 11.7V16H35.0688V11.7H-2.93117ZM16.0688 35H19.8688V-3H16.0688V35ZM0.868829 16V18H38.8688V16H0.868829ZM19.8688 -1H13.8688V37H19.8688V-1ZM32.8688 18V4H-5.13117V18H32.8688ZM23.5135 10.84L41.4202 17.1924L43.6706 10.8485L41.4255 4.50272L23.5135 10.84ZM21.0935 4V-15H-5.78282L3.18154 10.3373L21.0935 4ZM23.4135 4L41.4702 -1.91237L37.1849 -15H23.4135V4ZM24.8935 8.52L6.83683 14.4324L11.1222 27.52H24.8935V8.52ZM24.9335 8.52V27.52H38.5897L42.9425 14.5761L24.9335 8.52ZM26.4535 4V-15H12.7973L8.44453 -2.05612L26.4535 4ZM28.5335 4L46.4455 10.3373L55.4099 -15H28.5335V4ZM26.1135 10.84L8.20154 4.50272L5.9564 10.8485L8.20688 17.1924L26.1135 10.84ZM28.6535 18V37H55.5539L46.5602 11.6476L28.6535 18ZM26.3335 18L8.27915 23.9195L12.5679 37H26.3335V18ZM24.7335 13.12L42.7879 7.20054L38.4992 -5.88H24.7335V13.12ZM24.6935 13.12V-5.88H11.0345L6.68335 7.0674L24.6935 13.12ZM23.0535 18V37H36.7125L41.0637 24.0526L23.0535 18ZM20.9735 18L3.06688 11.6476L-5.92683 37H20.9735V18ZM41.4255 4.50272L39.0055 -2.33728L3.18154 10.3373L5.60154 17.1773L41.4255 4.50272ZM21.0935 23H23.4135V-15H21.0935V23ZM5.35683 9.91237L6.83683 14.4324L42.9502 2.60763L41.4702 -1.91237L5.35683 9.91237ZM24.8935 27.52H24.9335V-10.48H24.8935V27.52ZM42.9425 14.5761L44.4625 10.0561L8.44453 -2.05612L6.92453 2.46388L42.9425 14.5761ZM26.4535 23H28.5335V-15H26.4535V23ZM10.6215 -2.33728L8.20154 4.50272L44.0255 17.1773L46.4455 10.3373L10.6215 -2.33728ZM8.20688 17.1924L10.7469 24.3524L46.5602 11.6476L44.0202 4.48765L8.20688 17.1924ZM28.6535 -1H26.3335V37H28.6535V-1ZM44.3879 12.0805L42.7879 7.20054L6.67915 19.0395L8.27915 23.9195L44.3879 12.0805ZM24.7335 -5.88H24.6935V32.12H24.7335V-5.88ZM6.68335 7.0674L5.04335 11.9474L41.0637 24.0526L42.7037 19.1726L6.68335 7.0674ZM23.0535 -1H20.9735V37H23.0535V-1ZM38.8802 24.3524L41.4202 17.1924L5.60688 4.48765L3.06688 11.6476L38.8802 24.3524ZM31.8185 6H50.8185V-13H31.8185V6ZM29.5185 6H10.5185V25H29.5185V6ZM29.5185 4V-15H10.5185V4H29.5185ZM36.3185 4H55.3185V-15H36.3185V4ZM36.3185 6V25H55.3185V6H36.3185ZM34.0185 6V-13H15.0185V6H34.0185ZM34.0185 18V37H53.0185V18H34.0185ZM31.8185 18H12.8185V37H31.8185V18ZM31.8185 -13H29.5185V25H31.8185V-13ZM48.5185 6V4H10.5185V6H48.5185ZM29.5185 23H36.3185V-15H29.5185V23ZM17.3185 4V6H55.3185V4H17.3185ZM36.3185 -13H34.0185V25H36.3185V-13ZM15.0185 6V18H53.0185V6H15.0185ZM34.0185 -1H31.8185V37H34.0185V-1ZM50.8185 18V6H12.8185V18H50.8185ZM37.7837 4V-15H18.7837V4H37.7837ZM43.6037 4H62.6037V-15H43.6037V4ZM43.6037 6V25H62.6037V6H43.6037ZM39.9837 6V-13H20.9837V6H39.9837ZM39.9837 9.9H20.9837V28.9H39.9837V9.9ZM42.8237 9.9H61.8237V-9.1H42.8237V9.9ZM42.8237 11.9V30.9H61.8237V11.9H42.8237ZM39.9837 11.9V-7.1H20.9837V11.9H39.9837ZM39.9837 18V37H58.9837V18H39.9837ZM37.7837 18H18.7837V37H37.7837V18ZM37.7837 23H43.6037V-15H37.7837V23ZM24.6037 4V6H62.6037V4H24.6037ZM43.6037 -13H39.9837V25H43.6037V-13ZM20.9837 6V9.9H58.9837V6H20.9837ZM39.9837 28.9H42.8237V-9.1H39.9837V28.9ZM23.8237 9.9V11.9H61.8237V9.9H23.8237ZM42.8237 -7.1H39.9837V30.9H42.8237V-7.1ZM20.9837 11.9V18H58.9837V11.9H20.9837ZM39.9837 -1H37.7837V37H39.9837V-1ZM56.7837 18V4H18.7837V18H56.7837ZM45.0587 4V-15H26.0587V4H45.0587ZM47.2587 4H66.2587V-15H47.2587V4ZM47.2587 16H28.2587V35H47.2587V16ZM50.8787 16H69.8787V-3H50.8787V16ZM50.8787 18V37H69.8787V18H50.8787ZM45.0587 18H26.0587V37H45.0587V18ZM45.0587 23H47.2587V-15H45.0587V23ZM28.2587 4V16H66.2587V4H28.2587ZM47.2587 35H50.8787V-3H47.2587V35ZM31.8787 16V18H69.8787V16H31.8787ZM50.8787 -1H45.0587V37H50.8787V-1ZM64.0587 18V4H26.0587V18H64.0587ZM52.3337 4V-15H33.3337V4H52.3337ZM54.5337 4H73.5337V-15H54.5337V4ZM54.5337 18V37H73.5337V18H54.5337ZM52.3337 18H33.3337V37H52.3337V18ZM52.3337 23H54.5337V-15H52.3337V23ZM35.5337 4V18H73.5337V4H35.5337ZM54.5337 -1H52.3337V37H54.5337V-1ZM71.3337 18V4H33.3337V18H71.3337ZM58.5213 10.84L76.428 17.1924L78.6784 10.8485L76.4333 4.50272L58.5213 10.84ZM56.1013 4V-15H29.225L38.1894 10.3373L56.1013 4ZM58.4213 4L76.478 -1.91237L72.1927 -15H58.4213V4ZM59.9013 8.52L41.8446 14.4324L46.13 27.52H59.9013V8.52ZM59.9413 8.52V27.52H73.5975L77.9503 14.5761L59.9413 8.52ZM61.4613 4V-15H47.8052L43.4523 -2.05612L61.4613 4ZM63.5413 4L81.4533 10.3373L90.4177 -15H63.5413V4ZM61.1213 10.84L43.2094 4.50272L40.9642 10.8485L43.2147 17.1924L61.1213 10.84ZM63.6613 18V37H90.5617L81.568 11.6476L63.6613 18ZM61.3413 18L43.287 23.9195L47.5757 37H61.3413V18ZM59.7413 13.12L77.7957 7.20054L73.507 -5.88H59.7413V13.12ZM59.7013 13.12V-5.88H46.0423L41.6912 7.0674L59.7013 13.12ZM58.0613 18V37H71.7203L76.0715 24.0526L58.0613 18ZM55.9813 18L38.0747 11.6476L29.081 37H55.9813V18ZM76.4333 4.50272L74.0133 -2.33728L38.1894 10.3373L40.6094 17.1773L76.4333 4.50272ZM56.1013 23H58.4213V-15H56.1013V23ZM40.3646 9.91237L41.8446 14.4324L77.958 2.60763L76.478 -1.91237L40.3646 9.91237ZM59.9013 27.52H59.9413V-10.48H59.9013V27.52ZM77.9503 14.5761L79.4703 10.0561L43.4523 -2.05612L41.9323 2.46388L77.9503 14.5761ZM61.4613 23H63.5413V-15H61.4613V23ZM45.6294 -2.33728L43.2094 4.50272L79.0333 17.1773L81.4533 10.3373L45.6294 -2.33728ZM43.2147 17.1924L45.7547 24.3524L81.568 11.6476L79.028 4.48765L43.2147 17.1924ZM63.6613 -1H61.3413V37H63.6613V-1ZM79.3957 12.0805L77.7957 7.20054L41.687 19.0395L43.287 23.9195L79.3957 12.0805ZM59.7413 -5.88H59.7013V32.12H59.7413V-5.88ZM41.6912 7.0674L40.0512 11.9474L76.0715 24.0526L77.7115 19.1726L41.6912 7.0674ZM58.0613 -1H55.9813V37H58.0613V-1ZM73.888 24.3524L76.428 17.1924L40.6147 4.48765L38.0747 11.6476L73.888 24.3524Z" fill="white" mask="url(#path-1-inside-1_10_7)"/>
</g>
<defs>
<filter id="filter0_d_10_7" x="0.933716" y="4" width="66.7277" height="22" filterUnits="userSpaceOnUse" color-interpolation-filters="sRGB">
<feFlood flood-opacity="0" result="BackgroundImageFix"/>
<feColorMatrix in="SourceAlpha" type="matrix" values="0 0 0 0 0 0 0 0 0 0 0 0 0 0 0 0 0 0 127 0" result="hardAlpha"/>
<feOffset dy="4"/>
<feGaussianBlur stdDeviation="2"/>
<feComposite in2="hardAlpha" operator="out"/>
<feColorMatrix type="matrix" values="0 0 0 0 0 0 0 0 0 0 0 0 0 0 0 0 0 0 0.25 0"/>
<feBlend mode="normal" in2="BackgroundImageFix" result="effect1_dropShadow_10_7"/>
<feBlend mode="normal" in="SourceGraphic" in2="effect1_dropShadow_10_7" result="shape"/>
</filter>
</defs>
</svg>
